<svg width="288" height="49" viewBox="0 0 288 49" fill="none" xmlns="http://www.w3.org/2000/svg">
<path d="M267.679 36.9999V24.6799V15.9999H272.439L272.359 23.1199H272.999C273.293 21.3866 273.746 19.9599 274.359 18.8399C274.973 17.6933 275.773 16.8399 276.759 16.2799C277.746 15.7199 278.933 15.4399 280.319 15.4399C282.719 15.4399 284.533 16.2666 285.759 17.9199C286.986 19.5733 287.599 22.1466 287.599 25.6399V36.9999H281.799V26.2799C281.799 24.2266 281.493 22.7199 280.879 21.7599C280.293 20.7999 279.399 20.3199 278.199 20.3199C277.159 20.3199 276.279 20.6533 275.559 21.3199C274.866 21.9599 274.333 22.8799 273.959 24.0799C273.613 25.2533 273.426 26.6399 273.399 28.2399V36.9999H267.679Z" fill="#32CD32"/>
<path d="M249.986 37.5599C248.839 37.5599 247.799 37.3466 246.866 36.9199C245.959 36.4666 245.239 35.8133 244.706 34.9599C244.173 34.0799 243.906 32.9733 243.906 31.6399C243.906 30.4666 244.133 29.4933 244.586 28.7199C245.039 27.9199 245.693 27.2799 246.546 26.7999C247.399 26.2933 248.413 25.8933 249.586 25.5999C250.759 25.3066 252.066 25.0533 253.506 24.8399C254.519 24.6533 255.319 24.4933 255.906 24.3599C256.519 24.2266 256.959 24.0399 257.226 23.7999C257.493 23.5333 257.626 23.1466 257.626 22.6399C257.626 21.8399 257.333 21.1866 256.746 20.6799C256.186 20.1733 255.346 19.9199 254.226 19.9199C253.506 19.9199 252.813 20.0533 252.146 20.3199C251.506 20.5599 250.959 20.9599 250.506 21.5199C250.079 22.0533 249.786 22.7733 249.626 23.6799L244.546 22.4799C244.759 21.2266 245.146 20.1599 245.706 19.2799C246.293 18.3733 247.026 17.6399 247.906 17.0799C248.786 16.5199 249.773 16.1066 250.866 15.8399C251.986 15.5733 253.159 15.4399 254.386 15.4399C256.413 15.4399 258.079 15.7866 259.386 16.4799C260.693 17.1466 261.666 18.1733 262.306 19.5599C262.946 20.9466 263.266 22.7066 263.266 24.8399V28.4799C263.266 29.4133 263.279 30.3599 263.306 31.3199C263.333 32.2533 263.359 33.1999 263.386 34.1599C263.439 35.1199 263.506 36.0666 263.586 36.9999H258.506C258.453 36.1999 258.386 35.3466 258.306 34.4399C258.253 33.5333 258.213 32.5999 258.186 31.6399H257.626C257.333 32.7333 256.839 33.7333 256.146 34.6399C255.453 35.5199 254.586 36.2266 253.546 36.7599C252.506 37.2933 251.319 37.5599 249.986 37.5599ZM252.346 33.3599C252.879 33.3599 253.413 33.2666 253.946 33.0799C254.506 32.8666 255.026 32.5733 255.506 32.1999C256.013 31.8266 256.453 31.3466 256.826 30.7599C257.226 30.1733 257.519 29.4933 257.706 28.7199L257.666 26.1199L258.586 26.1999C258.186 26.5466 257.679 26.8266 257.066 27.0399C256.479 27.2266 255.839 27.3866 255.146 27.5199C254.479 27.6266 253.813 27.7466 253.146 27.8799C252.479 27.9866 251.866 28.1466 251.306 28.3599C250.773 28.5733 250.333 28.8666 249.986 29.2399C249.666 29.6133 249.506 30.1333 249.506 30.7999C249.506 31.5999 249.773 32.2266 250.306 32.6799C250.839 33.1333 251.519 33.3599 252.346 33.3599Z" fill="#32CD32"/>
<path d="M231.971 37.5599C230.184 37.5599 228.624 37.3066 227.291 36.7999C225.957 36.2933 224.837 35.5733 223.931 34.6399C223.024 33.7066 222.344 32.5866 221.891 31.2799C221.437 29.9733 221.211 28.5066 221.211 26.8799C221.211 25.2533 221.424 23.7466 221.851 22.3599C222.304 20.9733 222.971 19.7599 223.851 18.7199C224.731 17.6799 225.811 16.8799 227.091 16.3199C228.397 15.7333 229.891 15.4399 231.571 15.4399C233.224 15.4399 234.677 15.7199 235.931 16.2799C237.184 16.8133 238.211 17.6133 239.011 18.6799C239.837 19.7199 240.424 20.9866 240.771 22.4799C241.117 23.9466 241.211 25.6133 241.051 27.4799L224.891 27.6399V24.4799L237.411 24.3199L235.731 25.9999C235.891 24.6399 235.811 23.5199 235.491 22.6399C235.171 21.7333 234.664 21.0666 233.971 20.6399C233.304 20.1866 232.517 19.9599 231.611 19.9599C230.597 19.9599 229.717 20.2266 228.971 20.7599C228.251 21.2933 227.691 22.0666 227.291 23.0799C226.917 24.0933 226.731 25.3066 226.731 26.7199C226.731 28.9866 227.197 30.6533 228.131 31.7199C229.064 32.7866 230.357 33.3199 232.011 33.3199C232.757 33.3199 233.384 33.2266 233.891 33.0399C234.397 32.8266 234.811 32.5599 235.131 32.2399C235.451 31.8933 235.691 31.5066 235.851 31.0799C236.037 30.6533 236.171 30.2133 236.251 29.7599L241.331 30.5999C241.197 31.5599 240.917 32.4666 240.491 33.3199C240.091 34.1466 239.517 34.8799 238.771 35.5199C238.024 36.1599 237.091 36.6533 235.971 36.9999C234.851 37.3733 233.517 37.5599 231.971 37.5599Z" fill="#32CD32"/>
<path d="M211.898 37.0001V8.68005H217.578V37.0001H211.898Z" fill="#32CD32"/>
<path d="M197.537 37.56C195.457 37.56 193.617 37.2534 192.017 36.64C190.417 36.0267 189.07 35.1334 187.977 33.96C186.883 32.76 186.057 31.3334 185.497 29.68C184.963 28.0267 184.697 26.1467 184.697 24.04C184.697 21.88 184.977 19.9467 185.537 18.24C186.097 16.5067 186.923 15.0267 188.017 13.8C189.11 12.5734 190.43 11.64 191.977 11C193.523 10.36 195.283 10.04 197.257 10.04C198.83 10.04 200.257 10.2534 201.537 10.68C202.817 11.1067 203.897 11.72 204.777 12.52C205.683 13.2934 206.363 14.2267 206.817 15.32C207.27 16.4134 207.483 17.6134 207.457 18.92L202.137 20.12C202.163 18.9467 201.937 17.9734 201.457 17.2C201.003 16.4 200.39 15.8 199.617 15.4C198.87 15 198.017 14.8 197.057 14.8C196.23 14.8 195.43 14.96 194.657 15.28C193.91 15.6 193.23 16.12 192.617 16.84C192.03 17.56 191.563 18.48 191.217 19.6C190.87 20.72 190.697 22.0934 190.697 23.72C190.697 25.7734 190.99 27.48 191.577 28.84C192.163 30.1734 192.977 31.1734 194.017 31.84C195.083 32.5067 196.31 32.84 197.697 32.84C199.083 32.84 200.177 32.5467 200.977 31.96C201.803 31.3467 202.39 30.5467 202.737 29.56C203.083 28.5734 203.257 27.5067 203.257 26.36L208.417 27.08C208.443 28.52 208.257 29.88 207.857 31.16C207.483 32.4134 206.87 33.52 206.017 34.48C205.163 35.44 204.03 36.2 202.617 36.76C201.23 37.2934 199.537 37.56 197.537 37.56Z" fill="#32CD32"/>
<path d="M172.4 37.5599C170.614 37.5599 169.054 37.3066 167.72 36.7999C166.387 36.2933 165.267 35.5733 164.36 34.6399C163.454 33.7066 162.774 32.5866 162.32 31.2799C161.867 29.9733 161.64 28.5066 161.64 26.8799C161.64 25.2533 161.854 23.7466 162.28 22.3599C162.734 20.9733 163.4 19.7599 164.28 18.7199C165.16 17.6799 166.24 16.8799 167.52 16.3199C168.827 15.7333 170.32 15.4399 172 15.4399C173.654 15.4399 175.107 15.7199 176.36 16.2799C177.614 16.8133 178.64 17.6133 179.44 18.6799C180.267 19.7199 180.854 20.9866 181.2 22.4799C181.547 23.9466 181.64 25.6133 181.48 27.4799L165.32 27.6399V24.4799L177.84 24.3199L176.16 25.9999C176.32 24.6399 176.24 23.5199 175.92 22.6399C175.6 21.7333 175.094 21.0666 174.4 20.6399C173.734 20.1866 172.947 19.9599 172.04 19.9599C171.027 19.9599 170.147 20.2266 169.4 20.7599C168.68 21.2933 168.12 22.0666 167.72 23.0799C167.347 24.0933 167.16 25.3066 167.16 26.7199C167.16 28.9866 167.627 30.6533 168.56 31.7199C169.494 32.7866 170.787 33.3199 172.44 33.3199C173.187 33.3199 173.814 33.2266 174.32 33.0399C174.827 32.8266 175.24 32.5599 175.56 32.2399C175.88 31.8933 176.12 31.5066 176.28 31.0799C176.467 30.6533 176.6 30.2133 176.68 29.7599L181.76 30.5999C181.627 31.5599 181.347 32.4666 180.92 33.3199C180.52 34.1466 179.947 34.8799 179.2 35.5199C178.454 36.1599 177.52 36.6533 176.4 36.9999C175.28 37.3733 173.947 37.5599 172.4 37.5599Z" fill="#32CD32"/>
<path d="M146.156 37V26.56V16H150.996L150.956 23.64H151.596C151.783 21.72 152.129 20.16 152.636 18.96C153.143 17.76 153.823 16.8934 154.676 16.36C155.556 15.8 156.623 15.52 157.876 15.52C158.196 15.52 158.529 15.5467 158.876 15.6C159.223 15.6534 159.596 15.7467 159.996 15.88L159.756 22.04C159.276 21.8267 158.796 21.68 158.316 21.6C157.836 21.4934 157.396 21.44 156.996 21.44C155.983 21.44 155.116 21.6934 154.396 22.2C153.676 22.68 153.103 23.4 152.676 24.36C152.276 25.32 152.023 26.4934 151.916 27.88V37H146.156Z" fill="#32CD32"/>
<path d="M117.208 37L126.208 10.6H134.368L143.368 37H137.088L130.528 15.2H130.048L123.448 37H117.208ZM122.208 31.88V27.88H139.168V31.88H122.208Z" fill="#32CD32"/>
<path d="M106.385 37.5599C104.598 37.5599 103.038 37.3066 101.705 36.7999C100.371 36.2933 99.2514 35.5733 98.3447 34.6399C97.438 33.7066 96.758 32.5866 96.3047 31.2799C95.8514 29.9733 95.6247 28.5066 95.6247 26.8799C95.6247 25.2533 95.838 23.7466 96.2647 22.3599C96.718 20.9733 97.3847 19.7599 98.2647 18.7199C99.1447 17.6799 100.225 16.8799 101.505 16.3199C102.811 15.7333 104.305 15.4399 105.985 15.4399C107.638 15.4399 109.091 15.7199 110.345 16.2799C111.598 16.8133 112.625 17.6133 113.425 18.6799C114.251 19.7199 114.838 20.9866 115.185 22.4799C115.531 23.9466 115.625 25.6133 115.465 27.4799L99.3047 27.6399V24.4799L111.825 24.3199L110.145 25.9999C110.305 24.6399 110.225 23.5199 109.905 22.6399C109.585 21.7333 109.078 21.0666 108.385 20.6399C107.718 20.1866 106.931 19.9599 106.025 19.9599C105.011 19.9599 104.131 20.2266 103.385 20.7599C102.665 21.2933 102.105 22.0666 101.705 23.0799C101.331 24.0933 101.145 25.3066 101.145 26.7199C101.145 28.9866 101.611 30.6533 102.545 31.7199C103.478 32.7866 104.771 33.3199 106.425 33.3199C107.171 33.3199 107.798 33.2266 108.305 33.0399C108.811 32.8266 109.225 32.5599 109.545 32.2399C109.865 31.8933 110.105 31.5066 110.265 31.0799C110.451 30.6533 110.585 30.2133 110.665 29.7599L115.745 30.5999C115.611 31.5599 115.331 32.4666 114.905 33.3199C114.505 34.1466 113.931 34.8799 113.185 35.5199C112.438 36.1599 111.505 36.6533 110.385 36.9999C109.265 37.3733 107.931 37.5599 106.385 37.5599Z" fill="#32CD32"/>
<path d="M63.68 37L57.8 10.6H64.04L67.96 31.88H68.28L72.76 10.6H79.96L84.52 31.88H84.84L88.72 10.6H94.68L88.72 37H80.68L76.4 15.84H76.12L71.84 37H63.68Z" fill="#32CD32"/>
<path d="M41.2368 17.151C39.6324 13.183 36.7018 9.89412 32.9443 7.84464C29.1868 5.79516 24.835 5.11194 20.6302 5.91139C16.4255 6.71083 12.628 8.94348 9.88488 12.2289C7.14174 15.5144 5.62264 19.6493 5.58641 23.9292C5.55019 28.2091 6.99909 32.3692 9.68623 35.7006C12.3734 39.032 16.1325 41.3286 20.3231 42.1991C24.5137 43.0696 28.8765 42.4601 32.6681 40.4745C36.4598 38.4889 39.4456 35.2501 41.1169 31.3098" stroke="#32CD32" stroke-width="6" stroke-linecap="round"/>
<path d="M32.3081 19.9747L24.9123 28.8506C23.5659 30.4663 22.8916 31.2762 21.9851 31.3173C21.0786 31.3584 20.3345 30.6122 18.8463 29.124L15.8637 26.1414" stroke="#32CD32" stroke-width="6" stroke-linecap="round"/>
</svg> 